<svg xmlns="http://www.w3.org/2000/svg" viewBox="0 0 408.92 298.14"><defs><style>.cls-1{fill:#6853d6;}.cls-2{fill:#fcfdfe;}.cls-3{fill:#f2f2f2;}.cls-4{fill:#f56869;}.cls-5{fill:#738f82;}.cls-6{fill:#fdc049;}.cls-7{fill:#1c202b;}.cls-8{fill:#1d212b;}.cls-9{fill:#eff0f0;}.cls-10{fill:#eaebeb;}</style></defs><g id="Layer_2" data-name="Layer 2"><g id="Layer_1-2" data-name="Layer 1"><path class="cls-1" d="M7.49,48.08H7.24a6,6,0,0,0,0,.74c.17,6.47-.24,12.93-.51,19.39,0,.33,0,.67,0,1-.78,8.44,0,16.94-.89,25.39-.35,3.55-.3,7.15-.34,10.72-.09,8-.41,15.94-.91,23.9-.46,7.29,0,14.6-.61,21.92-.72,9.43-.35,18.92-1,28.38s-.29,19.26-1,28.88S2,227.67,1,237.29C.73,240.51.87,243.77.83,247,.76,252.26.71,257.5.64,262.75A3.58,3.58,0,0,1,.55,264c-1.26,3.45-.09,6.73.85,9.94,1.19,4.06,4.14,6.92,7.44,9.37a15.21,15.21,0,0,0,6.59,2.7c2.43.4,4.92.17,7.41.62,2.66.49,5.47.19,8.21.33,6.88.34,13.77-.41,20.65.64,2.51.39,5.14.14,7.72.28,7,.38,13.93,0,20.92.62,9.91.86,19.91.14,29.86,1,9.35.79,18.76.09,28.15.93,9.75.88,19.58,0,29.38.95,9.49.93,19.07,0,28.63.93s19.22,0,28.84,1,19.08,0,28.62.88,19.26.05,28.89.95,19.09.12,28.64.92,19.42.13,29.14,1,19.27-.15,28.89,1c3.7.43,7.49.12,11.23.22a19.31,19.31,0,0,0,13-4.09,18.34,18.34,0,0,0,7-12.72c.47-4.27.2-8.6.51-12.92.71-9.78.31-19.6,1-29.4.64-9.19.25-18.43.92-27.64.72-9.69.2-19.43.95-29.15.52-6.79.5-13.64.39-20.46-.07-4.49.56-8.92.72-13.39.28-8.22-.1-16.45.71-24.66.36-3.71.31-7.47.35-11.21q.12-12,.9-23.9c.48-7.29-.11-14.61.63-21.92a135.63,135.63,0,0,0,.43-15c-.06-6.48.36-12.94.75-19.41a19.77,19.77,0,0,0-2.18-10.35c-3.4-6.6-9-10-16.42-10.45-7.13-.45-14.27-.13-21.41-.68-9.61-.74-19.27-.22-28.91-1s-19.42-.07-29.13-.94c-9.09-.81-18.26.1-27.37-.9-2.46-.27-5-.2-7.47-.24-9.72-.14-19.43-.53-29.15-.91s-19.43-.37-29.13-1c-7.21-.47-14.44,0-21.67-.61-6.78-.58-13.64-.51-20.46-.46-4.66,0-9.26-.79-13.92-.65-2.41.07-4.83,0-7.24-.14-6.3-.3-12.61-.26-18.91-.68-5.81-.38-11.65-.39-17.47-.41-5.16,0-10.27-.76-15.42-.77-8.89,0-17.77-.32-26.65-.75C65.52.84,55,1,44.59.28,38.86-.1,33.1.26,27.36,0a18,18,0,0,0-10.82,3,17.17,17.17,0,0,0-6.39,7.48,23.73,23.73,0,0,0-2,10.92c.31,6.49-.62,12.93-.67,19.4C7.47,43.26,7.49,45.67,7.49,48.08Z"/><path class="cls-2" d="M7.49,48.08c0-2.41,0-4.82,0-7.23,0-6.47,1-12.91.67-19.4a23.73,23.73,0,0,1,2-10.92,17.17,17.17,0,0,1,6.39-7.48A18,18,0,0,1,27.36,0C33.1.26,38.86-.1,44.59.28,55,1,65.52.84,76,1.36c8.88.43,17.76.74,26.65.75,5.15,0,10.26.76,15.42.77,5.82,0,11.66,0,17.47.41,6.3.42,12.61.38,18.91.68,2.41.11,4.83.21,7.24.14,4.66-.14,9.26.68,13.92.65,6.82,0,13.68-.12,20.46.46,7.23.61,14.46.14,21.67.61,9.7.64,19.43.62,29.13,1s19.43.77,29.15.91c2.48,0,5,0,7.47.24,9.11,1,18.28.09,27.37.9,9.71.87,19.45.18,29.13.94s19.3.24,28.91,1c7.14.55,14.28.23,21.41.68,7.39.47,13,3.85,16.42,10.45a19.77,19.77,0,0,1,2.18,10.35c-.39,6.47-.81,12.93-.75,19.41a135.63,135.63,0,0,1-.43,15c-.74,7.31-.15,14.63-.63,21.92q-.78,11.94-.9,23.9c0,3.74,0,7.5-.35,11.21-.81,8.21-.43,16.44-.71,24.66-.16,4.47-.79,8.9-.72,13.39.11,6.82.13,13.67-.39,20.46-.75,9.72-.23,19.46-.95,29.15-.67,9.21-.28,18.45-.92,27.64-.68,9.8-.28,19.62-1,29.4-.31,4.32,0,8.65-.51,12.92a18.34,18.34,0,0,1-7,12.72,19.31,19.31,0,0,1-13,4.09c-3.74-.1-7.53.21-11.23-.22-9.62-1.11-19.3-.15-28.89-1s-19.47-.14-29.14-1-19.14,0-28.64-.92-19.3,0-28.89-.95-19.13,0-28.62-.88-19.28,0-28.84-1-19.14,0-28.63-.93c-9.8-1-19.63-.07-29.38-.95-9.39-.84-18.8-.14-28.15-.93-10-.84-20-.12-29.86-1-7-.62-14-.24-20.92-.62-2.58-.14-5.21.11-7.72-.28-6.88-1.05-13.77-.3-20.65-.64-2.74-.14-5.55.16-8.21-.33-2.49-.45-5-.22-7.41-.62a15.21,15.21,0,0,1-6.59-2.7c-3.3-2.45-6.25-5.31-7.44-9.37C.46,270.71-.71,267.43.55,264a3.58,3.58,0,0,0,.09-1.23C.71,257.5.76,252.26.83,247c0-3.25-.1-6.51.21-9.73C2,227.67,1.35,218,2,208.4s.32-19.27,1-28.88.25-19,1-28.38c.56-7.32.15-14.63.61-21.92.5-8,.82-15.92.91-23.9,0-3.57,0-7.17.34-10.72.84-8.45.11-16.95.89-25.39,0-.33,0-.67,0-1,.27-6.46.68-12.92.51-19.39a6,6,0,0,1,0-.74ZM375.9,291.7c.83,0,1.67-.05,2.5,0,3.16.21,6-.24,8.51-2.55s4.11-5,3.62-8.61a11.53,11.53,0,0,1,.05-2.49c.32-4.29.71-8.58.84-12.87.14-4.73.05-9.46,0-14.18,0-3.49,1-7,.26-10.47,0-.13.09-.32.18-.45a4.32,4.32,0,0,0,.56-2.88c.1-6.53.24-13.06.26-19.59,0-2.92.27-5.83.32-8.75.06-3.61-.87-7.31.65-10.84.18-.42-.12-.78-.31-1.16a5.08,5.08,0,0,1-.19-4.12,8.47,8.47,0,0,0,.53-3.1c0-2.38-.09-4.74.17-7.13a48,48,0,0,0,0-8.73c-.23-2.91,1.12-5.77.08-8.69a2,2,0,0,1,.24-1.92c.71-.74.44-1.59.43-2.37,0-1.64,0-3.26.11-4.91.25-4.3.15-8.62.19-12.94a3.3,3.3,0,0,1,.26-2c.65-.89.33-1.6,0-2.51a5.38,5.38,0,0,1,0-4.15,5.08,5.08,0,0,0,.47-2.85,33.34,33.34,0,0,1,.18-6.92c.42-5.55-.32-11.14.45-16.69-.91-2.77.5-5.47.25-8.25-.2-2.18.3-4.41.36-6.63.08-2.41,0-4.82,0-7.24s.36-4.57.16-6.94a38.11,38.11,0,0,1,.28-6.63A90.78,90.78,0,0,0,398,61.77c-.11-4.56-.15-9.13,0-13.68a7.76,7.76,0,0,0-2.32-5.79c-1.46-1.6-3.48-2.24-5.13-3.47a1.35,1.35,0,0,0-.94-.19c-3,.57-5.94,0-8.92-.19-3.57-.24-7.23.38-10.72-.19s-7.22.13-10.81-.57c-2-.38-4.09-.08-6.14-.16-6.22-.22-12.46-.28-18.68-.63a37,37,0,0,1-3.95.07,57.83,57.83,0,0,0-6.56-.45c-8.13-.27-16.27-.18-24.38-.91-.91-.08-1.52,1-2.34.46-1.61-1.06-3.39-.59-5.1-.66-3.57-.15-7.14.15-10.72-.24a17.67,17.67,0,0,0-3.2-.23c-3.49.25-7,.57-10.44-.48a4.66,4.66,0,0,0-1.24-.06c-6.42,0-12.84.09-19.26-.18-2.69-.11-5.42.17-8.08-.14-5.42-.62-10.9.46-16.31-.82a22.54,22.54,0,0,0-5.39-.07c-1.82,0-3.69.43-5.44.13-4-.7-8-.26-12-.44-1.72-.07-3.51.38-5.11-.67-.37-.25-.81,0-1.21,0a18,18,0,0,1-2.74.11c-4.75-.4-9.52-.44-14.28-.42-5,0-10-.28-14.93-.66-1.33-.1-2.55.26-3.84.24-3.42-.05-6.77-.79-10.19-.66a43.64,43.64,0,0,1-8.48-.07c-4-.64-8.06.12-12-.6-1.24-.22-2.23.77-3.27.21a5.77,5.77,0,0,0-2.9-.51c-4.65-.09-9.32.31-14-.29a63.28,63.28,0,0,0-7.41-.11c-3.58-.06-7.1-.79-10.7-.64-3.31.15-6.63,0-10-.15s-6.4-.6-9.6-.12c-2.09.31-4-1-6.06-.73a38.15,38.15,0,0,1-5.24,0c-4.45-.08-8.91-.28-13.36-.2-1,0-1.59-.92-2.59-.5a8.55,8.55,0,0,1-5.52.08,7.36,7.36,0,0,0-2.92-.07,24.32,24.32,0,0,1-7.71,0c-2.94-.53-5.05,1.11-6.87,2.68-2.37,2-3,5.31-3.14,8.26-.08,2.3-.23,4.6-.33,6.91-.15,4-.11,8,0,12S15,65,15.1,69c.12,4.32-.67,8.6-.49,12.94a93.88,93.88,0,0,1-.31,12.88c-.29,2.92.48,5.91-.63,8.78a3.65,3.65,0,0,0,0,1.24l0,17.15a2.27,2.27,0,0,1-.37,1.42A2.49,2.49,0,0,0,13,125.3c.1,1.55.65,3.16.14,4.65a8.31,8.31,0,0,0-.5,2.9c.1,5.88-.16,11.76,0,17.65a2.92,2.92,0,0,1-.2,1.46,3,3,0,0,0-.17,2.52,8.19,8.19,0,0,1-.09,4.34,11.22,11.22,0,0,0-.52,3.64c0,3.58,0,7.16,0,10.74a45.4,45.4,0,0,0-.12,5.7c.25,1.93-1,3.74-.2,5.68a3.11,3.11,0,0,1,.24,2.17c-1.09,2.26-.28,4.57-.39,6.83-.26,5.84.26,11.69-.69,17.54-.43,2.61-.12,5.39-.27,8.1-.22,3.9-.2,7.83,0,11.74s-.91,7.65-.54,11.51c.2,2.09-.6,4.09-.53,6.2.13,3.82.07,7.65,0,11.48a33.56,33.56,0,0,1-.29,5.47,14.63,14.63,0,0,0,.29,7c.95,3,2.63,5.55,5.75,6.33a36,36,0,0,0,6.84,1.25c7.09.38,14.21-.47,21.32.62,2.72.42,5.58.09,8.39.32a92.42,92.42,0,0,0,12.23.05c4.06-.2,8,.66,12.06.63,3.72,0,7.45.5,11.19.42,3.17-.06,6.33,0,9.5,0,3.39-.07,6.74,1,10.15.25a.62.62,0,0,1,.47.11c1.26.92,2.72.63,4.11.64,3.42,0,6.83,0,10.24,0,2.66,0,5.32-.06,8,.13,4.37.32,8.71,1.14,13.13.87,1.49-.09,3-.05,4.5,0,3.73.11,7.47-.07,11.21.23,2.81.21,5.58.8,8.4.77,9.45-.09,18.89,0,28.32.5,6.86.37,13.72-.59,20.59.65,3.67.66,7.54.31,11.32.34,4.5,0,9,0,13.49,0a4.62,4.62,0,0,1,2.2.18,6,6,0,0,0,3.6.58c2.31-.06,4.58,0,6.89.15,7.17.51,14.37-.44,21.56.71,2.36.38,4.9.08,7.39.29,7.17.6,14.42-.76,21.56.77,2.24-.73,4.6.58,6.83-.44.22-.1.65.11.91.28a3.5,3.5,0,0,0,2.16.46c10.86-.34,21.67.56,32.5,1,4.07.15,8.18-.24,12.23.1s8.06-.13,12,.9a4.67,4.67,0,0,0,1.24,0ZM35.3,14.05a6,6,0,0,0-5.89-5.8,6,6,0,0,0-5.76,5.69,6,6,0,0,0,5.89,6A6,6,0,0,0,35.3,14.05ZM63.19,9.57c-3.64,0-5.78,2.25-5.76,6a5.79,5.79,0,0,0,5.74,5.69A5.89,5.89,0,0,0,69,15.11,5.68,5.68,0,0,0,63.19,9.57ZM46.85,20.68a5.69,5.69,0,0,0,5.41-5.31c-.06-4.5-1.85-6.21-5.83-6.33a5.65,5.65,0,0,0-5.68,5.9A5.8,5.8,0,0,0,46.85,20.68Z"/><path class="cls-3" d="M375.9,291.7h-4.5a4.67,4.67,0,0,1-1.24,0c-3.94-1-8-.58-12-.9s-8.16.05-12.23-.1c-10.83-.42-21.64-1.32-32.5-1a3.5,3.5,0,0,1-2.16-.46c-.26-.17-.69-.38-.91-.28-2.23,1-4.59-.29-6.83.44-7.14-1.53-14.39-.17-21.56-.77-2.49-.21-5,.09-7.39-.29-7.19-1.15-14.39-.2-21.56-.71-2.31-.16-4.58-.21-6.89-.15a6,6,0,0,1-3.6-.58,4.62,4.62,0,0,0-2.2-.18c-4.5,0-9,0-13.49,0-3.78,0-7.65.32-11.32-.34-6.87-1.24-13.73-.28-20.59-.65-9.43-.5-18.87-.59-28.32-.5-2.82,0-5.59-.56-8.4-.77-3.74-.3-7.48-.12-11.21-.23-1.5,0-3-.08-4.5,0-4.42.27-8.76-.55-13.13-.87-2.67-.19-5.33-.09-8-.13-3.41-.05-6.82,0-10.24,0-1.39,0-2.85.28-4.11-.64a.62.62,0,0,0-.47-.11c-3.41.77-6.76-.32-10.15-.25-3.17.06-6.33,0-9.5,0-3.74.08-7.47-.44-11.19-.42-4,0-8-.83-12.06-.63a92.42,92.42,0,0,1-12.23-.05c-2.81-.23-5.67.1-8.39-.32-7.11-1.09-14.23-.24-21.32-.62a36,36,0,0,1-6.84-1.25c-3.12-.78-4.8-3.29-5.75-6.33a14.63,14.63,0,0,1-.29-7,33.56,33.56,0,0,0,.29-5.47c0-3.83.1-7.66,0-11.48-.07-2.11.73-4.11.53-6.2-.37-3.86.72-7.64.54-11.51s-.19-7.84,0-11.74c.15-2.71-.16-5.49.27-8.1.95-5.85.43-11.7.69-17.54.11-2.26-.7-4.57.39-6.83a3.11,3.11,0,0,0-.24-2.17c-.8-1.94.45-3.75.2-5.68a45.4,45.4,0,0,1,.12-5.7c0-3.58,0-7.16,0-10.74a11.22,11.22,0,0,1,.52-3.64,8.19,8.19,0,0,0,.09-4.34,3,3,0,0,1,.17-2.52,2.92,2.92,0,0,0,.2-1.46c-.15-5.89.11-11.77,0-17.65a8.31,8.31,0,0,1,.5-2.9c.51-1.49,0-3.1-.14-4.65a2.49,2.49,0,0,1,.24-1.89,2.27,2.27,0,0,0,.37-1.42l0-17.15a3.65,3.65,0,0,1,0-1.24c1.11-2.87.34-5.86.63-8.78a93.88,93.88,0,0,0,.31-12.88c-.18-4.34.61-8.62.49-12.94-.1-4,.65-8,.56-12s-.13-8,0-12c.1-2.31.25-4.61.33-6.91.1-3,.77-6.23,3.14-8.26C21,28.31,23.08,26.67,26,27.2a24.32,24.32,0,0,0,7.71,0,7.36,7.36,0,0,1,2.92.07,8.55,8.55,0,0,0,5.52-.08c1-.42,1.61.52,2.59.5,4.45-.08,8.91.12,13.36.2a38.15,38.15,0,0,0,5.24,0c2.11-.26,4,1,6.06.73,3.2-.48,6.41,0,9.6.12s6.64.3,10,.15c3.6-.15,7.12.58,10.7.64a63.28,63.28,0,0,1,7.41.11c4.63.6,9.3.2,14,.29a5.77,5.77,0,0,1,2.9.51c1,.56,2-.43,3.27-.21,3.94.72,8,0,12,.6a43.64,43.64,0,0,0,8.48.07c3.42-.13,6.77.61,10.19.66,1.29,0,2.51-.34,3.84-.24,5,.38,9.94.68,14.93.66,4.76,0,9.53,0,14.28.42a18,18,0,0,0,2.74-.11c.4,0,.84-.3,1.21,0,1.6,1,3.39.6,5.11.67,4,.18,8-.26,12,.44,1.75.3,3.62-.1,5.44-.13a22.54,22.54,0,0,1,5.39.07c5.41,1.28,10.89.2,16.31.82,2.66.31,5.39,0,8.08.14,6.42.27,12.84.15,19.26.18a4.66,4.66,0,0,1,1.24.06c3.44,1,7,.73,10.44.48a17.67,17.67,0,0,1,3.2.23c3.58.39,7.15.09,10.72.24,1.71.07,3.49-.4,5.1.66.82.53,1.43-.54,2.34-.46,8.11.73,16.25.64,24.38.91a57.83,57.83,0,0,1,6.56.45,37,37,0,0,0,3.95-.07c6.22.35,12.46.41,18.68.63,2.05.08,4.17-.22,6.14.16,3.59.7,7.19,0,10.81.57s7.15,0,10.72.19c3,.2,5.93.76,8.92.19a1.35,1.35,0,0,1,.94.19c1.65,1.23,3.67,1.87,5.13,3.47A7.76,7.76,0,0,1,398,48.09c-.17,4.55-.13,9.12,0,13.68a90.78,90.78,0,0,1-.59,10.43,38.11,38.11,0,0,0-.28,6.63c.2,2.37-.18,4.63-.16,6.94s.06,4.83,0,7.24c-.06,2.22-.56,4.45-.36,6.63.25,2.78-1.16,5.48-.25,8.25-.77,5.55,0,11.14-.45,16.69a33.34,33.34,0,0,0-.18,6.92,5.08,5.08,0,0,1-.47,2.85,5.38,5.38,0,0,0,0,4.15c.35.91.67,1.62,0,2.51a3.3,3.3,0,0,0-.26,2c0,4.32.06,8.64-.19,12.94-.1,1.65-.14,3.27-.11,4.91,0,.78.28,1.63-.43,2.37a2,2,0,0,0-.24,1.92c1,2.92-.31,5.78-.08,8.69a48,48,0,0,1,0,8.73c-.26,2.39-.13,4.75-.17,7.13a8.47,8.47,0,0,1-.53,3.1,5.08,5.08,0,0,0,.19,4.12c.19.38.49.74.31,1.16-1.52,3.53-.59,7.23-.65,10.84,0,2.92-.32,5.83-.32,8.75,0,6.53-.16,13.06-.26,19.59a4.32,4.32,0,0,1-.56,2.88c-.09.13-.21.32-.18.45.72,3.51-.28,7-.26,10.47,0,4.72.11,9.45,0,14.18-.13,4.29-.52,8.58-.84,12.87a11.53,11.53,0,0,0-.05,2.49c.49,3.59-1,6.22-3.62,8.61s-5.35,2.76-8.51,2.55C377.57,291.65,376.73,291.7,375.9,291.7ZM238.16,149.59a46.91,46.91,0,0,0-2-13.89A38.36,38.36,0,0,0,228.59,121a29.13,29.13,0,0,0-16.44-10.13,36.17,36.17,0,0,0-10.39-.63,28.28,28.28,0,0,0-17,7.39,39.31,39.31,0,0,0-11.33,18.7A67.58,67.58,0,0,0,171,159a49.16,49.16,0,0,0,4.52,18.76,33.2,33.2,0,0,0,12.73,14.62,31.88,31.88,0,0,0,32.62-.54c6.61-4.42,10.79-10.7,13.64-18C237.49,166.3,238.41,158.34,238.16,149.59Zm-97.24,43.34c1.38,0,3.21,0,5,0s1.95-.05,2.16-1.81c.07-.57,0-1.16,0-1.74.1-4.4.22-8.79.31-13.19a1.23,1.23,0,0,1,1.41-1.35c.5,0,1,0,1.49.06,2.5.14,5-.06,7.49.23,1,.11,2.13.12,2.18-1.35.1-3.49.15-7,.23-10.47,0-1-.52-1.22-1.43-1.23-2.74,0-5.48-.16-8.22-.24-2.34-.07-2.39-.14-2.37-2.38,0-4.31.25-8.61.51-12.91.3-5.05.31-10.13.42-15.19.06-2.73.14-5.47.31-8.18.28-4.23.34-8.45.54-12.67,0-.85-.36-1.16-1.2-1.19-3.73-.14-7.46-.39-11.2-.48s-3.77,0-6.13,3l-14.92,19.35q-10.51,13.6-21,27.18a4.49,4.49,0,0,0-1,2.18c-.57,3.47-.34,7-.47,10.45-.07,1.74.2,1.95,2.08,1.94,9.55-.07,19.07.74,28.61.93,2,0,4,.14,6,.1,1.18,0,1.77.41,1.6,1.58-.34,2.48,0,5-.34,7.47a59.27,59.27,0,0,0-.41,7.43c0,1.92.25,2.16,2.13,2.23A52.33,52.33,0,0,1,140.92,192.93Zm159.59-3.54h.31c0-2.33,0-4.66,0-7,0-1.77.3-2,2.08-1.95.34,0,.67.06,1,.07,2.49.08,5,.18,7.48.22.89,0,1.9.17,1.92-1.28.06-3.39.17-6.79.3-10.18.05-1.13-.27-1.61-1.53-1.6-2.83,0-5.66-.13-8.48-.24-2-.08-2.08-.23-2-2.22.16-6.46.3-12.91.76-19.37.36-5.05.22-10.14.36-15.22.08-2.88.15-5.78.47-8.65.22-2,0-4,.18-6,.06-.72-.29-1-1-1.06-4.4-.16-8.8-.3-13.19-.54a3.67,3.67,0,0,0-3.35,1.73c-1.53,2.07-3.14,4.09-4.71,6.13-4.76,6.2-9.5,12.41-14.28,18.58q-9,11.64-18.07,23.21a4.34,4.34,0,0,0-1.05,2.49c-.13,3.49-.2,7-.27,10.46,0,1.16.6,1.61,1.74,1.58,1.58,0,3.16,0,4.74,0,8,.28,15.92.59,23.89.87,2.07.07,4.16.05,6.23.14,1.49.06,1.74.36,1.66,1.83-.24,4.71-.51,9.41-.75,14.12-.13,2.48.08,2.68,2.61,2.72,3.57.07,7.15.1,10.72.21,1.92.06,2.19,0,2.26-1.91C300.57,194.22,300.51,191.8,300.51,189.39Z"/><path class="cls-4" d="M35.3,14.05A6,6,0,0,1,29.54,20a6,6,0,0,1-5.89-6,6,6,0,0,1,5.76-5.69A6,6,0,0,1,35.3,14.05Z"/><path class="cls-5" d="M63.19,9.57A5.68,5.68,0,0,1,69,15.11a5.89,5.89,0,0,1-5.81,6.17,5.79,5.79,0,0,1-5.74-5.69C57.41,11.82,59.55,9.59,63.19,9.57Z"/><path class="cls-6" d="M46.85,20.68a5.8,5.8,0,0,1-6.1-5.74A5.65,5.65,0,0,1,46.43,9c4,.12,5.77,1.83,5.83,6.33A5.69,5.69,0,0,1,46.85,20.68Z"/><path class="cls-7" d="M238.16,149.59c.25,8.75-.67,16.71-3.65,24.32-2.85,7.25-7,13.53-13.64,18a31.88,31.88,0,0,1-32.62.54,33.2,33.2,0,0,1-12.73-14.62A49.16,49.16,0,0,1,171,159a67.58,67.58,0,0,1,2.41-22.66,39.31,39.31,0,0,1,11.33-18.7,28.28,28.28,0,0,1,17-7.39,36.17,36.17,0,0,1,10.39.63A29.13,29.13,0,0,1,228.59,121a38.36,38.36,0,0,1,7.58,14.67A46.91,46.91,0,0,1,238.16,149.59Zm-51.72,5.69c0,5.77.67,11.43,3,16.78,1.75,4,4.25,7.29,8.37,9.1A15.1,15.1,0,0,0,216,176.62c3.64-4.78,5.36-10.24,6.15-16a62.55,62.55,0,0,0,.45-13.4c-.46-6-1.69-11.84-5.44-16.8A14.77,14.77,0,0,0,200,125.2c-5.72,1.94-8.6,6.5-10.65,11.73C187.05,142.82,186.46,149,186.44,155.28Z"/><path class="cls-8" d="M140.92,192.93a52.33,52.33,0,0,0-6.19-.22c-1.88-.07-2.16-.31-2.13-2.23a59.27,59.27,0,0,1,.41-7.43c.37-2.5,0-5,.34-7.47.17-1.17-.42-1.6-1.6-1.58-2,0-4-.06-6-.1-9.54-.19-19.06-1-28.61-.93-1.88,0-2.15-.2-2.08-1.94.13-3.48-.1-7,.47-10.45a4.49,4.49,0,0,1,1-2.18q10.56-13.56,21-27.18l14.92-19.35c2.36-3.06,2.36-3.12,6.13-3s7.47.34,11.2.48c.84,0,1.24.34,1.2,1.19-.2,4.22-.26,8.44-.54,12.67-.17,2.71-.25,5.45-.31,8.18-.11,5.06-.12,10.14-.42,15.19-.26,4.3-.47,8.6-.51,12.91,0,2.24,0,2.31,2.37,2.38,2.74.08,5.48.2,8.22.24.91,0,1.46.23,1.43,1.23-.08,3.49-.13,7-.23,10.47,0,1.47-1.19,1.46-2.18,1.35-2.5-.29-5-.09-7.49-.23-.49,0-1-.06-1.49-.06a1.23,1.23,0,0,0-1.41,1.35c-.09,4.4-.21,8.79-.31,13.19,0,.58,0,1.17,0,1.74-.21,1.76-.42,1.87-2.16,1.81S142.3,192.93,140.92,192.93Zm-6.26-63.53a1.65,1.65,0,0,0-1.08.78L117.1,152.11c-1.65,2.19-3.32,4.37-4.95,6.57-.75,1-.58,1.48.67,1.59,6.62.61,13.28.45,19.91.87.63,0,1.33-.37,1.15-1-.38-1.38.23-2.62.25-3.94.08-4.15.29-8.3.37-12.45s.26-8.44.62-12.65A1.73,1.73,0,0,0,134.66,129.4Z"/><path class="cls-8" d="M300.51,189.39c0,2.41.06,4.83,0,7.23-.07,1.89-.34,2-2.26,1.91-3.57-.11-7.15-.14-10.72-.21-2.53,0-2.74-.24-2.61-2.72.24-4.71.51-9.41.75-14.12.08-1.47-.17-1.77-1.66-1.83-2.07-.09-4.16-.07-6.23-.14-8-.28-15.93-.59-23.89-.87-1.58,0-3.16-.08-4.74,0-1.14,0-1.76-.42-1.74-1.58.07-3.48.14-7,.27-10.46a4.34,4.34,0,0,1,1.05-2.49q9.06-11.58,18.07-23.21c4.78-6.17,9.52-12.38,14.28-18.58,1.57-2,3.18-4.06,4.71-6.13a3.67,3.67,0,0,1,3.35-1.73c4.39.24,8.79.38,13.19.54.74,0,1.09.34,1,1.06-.17,2,0,4-.18,6-.32,2.87-.39,5.77-.47,8.65-.14,5.08,0,10.17-.36,15.22-.46,6.46-.6,12.91-.76,19.37-.05,2,.08,2.14,2,2.22,2.82.11,5.65.26,8.48.24,1.26,0,1.58.47,1.53,1.6-.13,3.39-.24,6.79-.3,10.18,0,1.45-1,1.3-1.92,1.28-2.49,0-5-.14-7.48-.22-.33,0-.66-.07-1-.07-1.78,0-2,.18-2.08,1.95,0,2.32,0,4.65,0,7ZM287,135a3,3,0,0,0-1.43,1.21q-10.51,13.92-21,27.85c-1,1.37-.95,1.68.88,1.85,2.89.26,5.79.42,8.69.53,3.41.14,6.82.17,10.23.28,1.54,0,1.68,0,1.76-1.62.19-3.9.34-7.8.5-11.7.13-3.24.31-6.47.38-9.72C287.07,140.79,287,137.92,287,135Z"/><path class="cls-9" d="M186.44,155.28c0-6.27.61-12.46,2.92-18.35,2-5.23,4.93-9.79,10.65-11.73a14.77,14.77,0,0,1,17.1,5.18c3.75,5,5,10.76,5.44,16.8a62.55,62.55,0,0,1-.45,13.4c-.79,5.8-2.51,11.26-6.15,16a15.1,15.1,0,0,1-18.11,4.54c-4.12-1.81-6.62-5.13-8.37-9.1C187.11,166.71,186.46,161.05,186.44,155.28Z"/><path class="cls-10" d="M134.66,129.4a1.73,1.73,0,0,1,.46,1.7c-.36,4.21-.55,8.43-.62,12.65s-.29,8.3-.37,12.45c0,1.32-.63,2.56-.25,3.94.18.63-.52,1-1.15,1-6.63-.42-13.29-.26-19.91-.87-1.25-.11-1.42-.57-.67-1.59,1.63-2.2,3.3-4.38,4.95-6.57l16.48-21.93A1.65,1.65,0,0,1,134.66,129.4Z"/><path class="cls-10" d="M287,135c0,3,.05,5.83,0,8.68-.07,3.25-.25,6.48-.38,9.72-.16,3.9-.31,7.8-.5,11.7-.08,1.62-.22,1.66-1.76,1.62-3.41-.11-6.82-.14-10.23-.28-2.9-.11-5.8-.27-8.69-.53-1.83-.17-1.92-.48-.88-1.85q10.5-13.94,21-27.85A3,3,0,0,1,287,135Z"/></g></g></svg>