<svg width="59" height="22" viewBox="0 0 59 22" fill="none" xmlns="http://www.w3.org/2000/svg">
<path d="M11 0.5H48C53.799 0.5 58.5 5.20101 58.5 11C58.5 16.799 53.799 21.5 48 21.5H11C5.20101 21.5 0.5 16.799 0.5 11C0.5 5.20101 5.20101 0.5 11 0.5Z" fill="#1D173C"/>
<path d="M11 0.5H48C53.799 0.5 58.5 5.20101 58.5 11C58.5 16.799 53.799 21.5 48 21.5H11C5.20101 21.5 0.5 16.799 0.5 11C0.5 5.20101 5.20101 0.5 11 0.5Z" stroke="#6852D6"/>
<path d="M16.1484 7.22461L13.3242 15H12.1699L15.4219 6.46875H16.166L16.1484 7.22461ZM18.5156 15L15.6855 7.22461L15.668 6.46875H16.4121L19.6758 15H18.5156ZM18.3691 11.8418V12.7676H13.5762V11.8418H18.3691ZM24.6504 13.7695V6H25.7402V15H24.7441L24.6504 13.7695ZM20.3848 11.9004V11.7773C20.3848 11.293 20.4434 10.8535 20.5605 10.459C20.6816 10.0605 20.8516 9.71875 21.0703 9.43359C21.293 9.14844 21.5566 8.92969 21.8613 8.77734C22.1699 8.62109 22.5137 8.54297 22.8926 8.54297C23.291 8.54297 23.6387 8.61328 23.9355 8.75391C24.2363 8.89062 24.4902 9.0918 24.6973 9.35742C24.9082 9.61914 25.0742 9.93555 25.1953 10.3066C25.3164 10.6777 25.4004 11.0977 25.4473 11.5664V12.1055C25.4043 12.5703 25.3203 12.9883 25.1953 13.3594C25.0742 13.7305 24.9082 14.0469 24.6973 14.3086C24.4902 14.5703 24.2363 14.7715 23.9355 14.9121C23.6348 15.0488 23.2832 15.1172 22.8809 15.1172C22.5098 15.1172 22.1699 15.0371 21.8613 14.877C21.5566 14.7168 21.293 14.4922 21.0703 14.2031C20.8516 13.9141 20.6816 13.5742 20.5605 13.1836C20.4434 12.7891 20.3848 12.3613 20.3848 11.9004ZM21.4746 11.7773V11.9004C21.4746 12.2168 21.5059 12.5137 21.5684 12.791C21.6348 13.0684 21.7363 13.3125 21.873 13.5234C22.0098 13.7344 22.1836 13.9004 22.3945 14.0215C22.6055 14.1387 22.8574 14.1973 23.1504 14.1973C23.5098 14.1973 23.8047 14.1211 24.0352 13.9688C24.2695 13.8164 24.457 13.6152 24.5977 13.3652C24.7383 13.1152 24.8477 12.8438 24.9258 12.5508V11.1387C24.8789 10.9238 24.8105 10.7168 24.7207 10.5176C24.6348 10.3145 24.5215 10.1348 24.3809 9.97852C24.2441 9.81836 24.0742 9.69141 23.8711 9.59766C23.6719 9.50391 23.4355 9.45703 23.1621 9.45703C22.8652 9.45703 22.6094 9.51953 22.3945 9.64453C22.1836 9.76562 22.0098 9.93359 21.873 10.1484C21.7363 10.3594 21.6348 10.6055 21.5684 10.8867C21.5059 11.1641 21.4746 11.4609 21.4746 11.7773ZM28.5059 9.91992V15H27.416V8.66016H28.4473L28.5059 9.91992ZM28.2832 11.5898L27.7793 11.5723C27.7832 11.1387 27.8398 10.7383 27.9492 10.3711C28.0586 10 28.2207 9.67773 28.4355 9.4043C28.6504 9.13086 28.918 8.91992 29.2383 8.77148C29.5586 8.61914 29.9297 8.54297 30.3516 8.54297C30.6484 8.54297 30.9219 8.58594 31.1719 8.67188C31.4219 8.75391 31.6387 8.88477 31.8223 9.06445C32.0059 9.24414 32.1484 9.47461 32.25 9.75586C32.3516 10.0371 32.4023 10.377 32.4023 10.7754V15H31.3184V10.8281C31.3184 10.4961 31.2617 10.2305 31.1484 10.0312C31.0391 9.83203 30.8828 9.6875 30.6797 9.59766C30.4766 9.50391 30.2383 9.45703 29.9648 9.45703C29.6445 9.45703 29.377 9.51367 29.1621 9.62695C28.9473 9.74023 28.7754 9.89648 28.6465 10.0957C28.5176 10.2949 28.4238 10.5234 28.3652 10.7812C28.3105 11.0352 28.2832 11.3047 28.2832 11.5898ZM32.3906 10.9922L31.6641 11.2148C31.668 10.8672 31.7246 10.5332 31.834 10.2129C31.9473 9.89258 32.1094 9.60742 32.3203 9.35742C32.5352 9.10742 32.7988 8.91016 33.1113 8.76562C33.4238 8.61719 33.7812 8.54297 34.1836 8.54297C34.5234 8.54297 34.8242 8.58789 35.0859 8.67773C35.3516 8.76758 35.5742 8.90625 35.7539 9.09375C35.9375 9.27734 36.0762 9.51367 36.1699 9.80273C36.2637 10.0918 36.3105 10.4355 36.3105 10.834V15H35.2207V10.8223C35.2207 10.4668 35.1641 10.1914 35.0508 9.99609C34.9414 9.79688 34.7852 9.6582 34.582 9.58008C34.3828 9.49805 34.1445 9.45703 33.8672 9.45703C33.6289 9.45703 33.418 9.49805 33.2344 9.58008C33.0508 9.66211 32.8965 9.77539 32.7715 9.91992C32.6465 10.0605 32.5508 10.2227 32.4844 10.4062C32.4219 10.5898 32.3906 10.7852 32.3906 10.9922ZM39.1289 8.66016V15H38.0391V8.66016H39.1289ZM37.957 6.97852C37.957 6.80273 38.0098 6.6543 38.1152 6.5332C38.2246 6.41211 38.3848 6.35156 38.5957 6.35156C38.8027 6.35156 38.9609 6.41211 39.0703 6.5332C39.1836 6.6543 39.2402 6.80273 39.2402 6.97852C39.2402 7.14648 39.1836 7.29102 39.0703 7.41211C38.9609 7.5293 38.8027 7.58789 38.5957 7.58789C38.3848 7.58789 38.2246 7.5293 38.1152 7.41211C38.0098 7.29102 37.957 7.14648 37.957 6.97852ZM41.9531 10.0137V15H40.8691V8.66016H41.8945L41.9531 10.0137ZM41.6953 11.5898L41.2441 11.5723C41.248 11.1387 41.3125 10.7383 41.4375 10.3711C41.5625 10 41.7383 9.67773 41.9648 9.4043C42.1914 9.13086 42.4609 8.91992 42.7734 8.77148C43.0898 8.61914 43.4395 8.54297 43.8223 8.54297C44.1348 8.54297 44.416 8.58594 44.666 8.67188C44.916 8.75391 45.1289 8.88672 45.3047 9.07031C45.4844 9.25391 45.6211 9.49219 45.7148 9.78516C45.8086 10.0742 45.8555 10.4277 45.8555 10.8457V15H44.7656V10.834C44.7656 10.502 44.7168 10.2363 44.6191 10.0371C44.5215 9.83398 44.3789 9.6875 44.1914 9.59766C44.0039 9.50391 43.7734 9.45703 43.5 9.45703C43.2305 9.45703 42.9844 9.51367 42.7617 9.62695C42.543 9.74023 42.3535 9.89648 42.1934 10.0957C42.0371 10.2949 41.9141 10.5234 41.8242 10.7812C41.7383 11.0352 41.6953 11.3047 41.6953 11.5898Z" fill="#6852D6"/>
</svg>
