<svg xmlns="http://www.w3.org/2000/svg" viewBox="0 0 412.58 124.27"><defs><style>.cls-1{fill:#6853d6;}.cls-2{fill:#101319;}.cls-3{fill:#393f4c;}.cls-4{fill:#101218;}.cls-5{fill:#515560;}</style></defs><g id="Layer_2" data-name="Layer 2"><g id="Layer_1-2" data-name="Layer 1"><path class="cls-1" d="M19.62,107.23c7.73,3.94,15.3,8.22,23.35,11.5C48.8,121.1,54.68,123.28,61,124a41.84,41.84,0,0,0,17.47-1.48A45.21,45.21,0,0,0,96,111.83c3.65-3.5,7.3-7,11.21-10.21A60.08,60.08,0,0,1,138.14,88c10.27-1.37,20.39-.53,30.55.66,3.46.4,6.93.79,10.34,1.47,2.52.51,5.08.72,7.59,1.34,2.32.58,4.73.72,7.08,1.28a57,57,0,0,0,10.36,1.19,59.88,59.88,0,0,0,21.4-2.36A61,61,0,0,0,240,84.64c5.68-3.63,10.86-7.93,16.24-12,4.92-3.69,9.92-7.2,15.76-9.36,7-2.58,14.11-2.8,21.36-1.82,1.09,2.86,1.67,5.87,2.82,8.74a45.85,45.85,0,0,0,6.94,11.68,46.67,46.67,0,0,0,18,13.34,52,52,0,0,0,11.2,3,35.59,35.59,0,0,0,6.46.22,96.2,96.2,0,0,0,11.12-.93c5.1-.56,10.19-1.17,15.3-1.67s10.09-.8,15.09-1.48c4.59-.63,9.18-1.16,13.78-1.52,4.3-.34,8.54-1.35,12.88-1.21.13,0,.28-.17.41-.26a.76.76,0,0,0,.43-.16.38.38,0,0,0,.5-.28,2.51,2.51,0,0,0,1.52-1.55,33.91,33.91,0,0,0,1.57-4.72,92.17,92.17,0,0,0,1.16-18.84c-.15-5.62-.16-11.26-.81-16.89-.48-4.11-.87-8.25-1.48-12.34-.65-4.39-1.49-8.77-2.35-13.13a111.74,111.74,0,0,0-4.8-16.65c-1-2.68-2.19-5.36-5.13-6.6a.83.83,0,0,0-1.28.08.58.58,0,0,0-.34.11,21.92,21.92,0,0,0-4.22.13c-4.16.92-8.42.81-12.59,1.56-1.21.21-2.57-.24-3.71.11-3.94,1.2-8.06,1-12.06,1.56C358.61,4.5,353.4,5,348.22,5.54c-5.68.6-11.35,1.29-17,2-9.78,1.2-18,5.77-24.88,12.5A42.06,42.06,0,0,0,296,35.41a42.83,42.83,0,0,0-3.17,14.19,2.58,2.58,0,0,1-1,2.4c-3-.53-6.05-.16-9.08-.22-1.13,0-2.3-.37-3.39.24l-.55.12a35.09,35.09,0,0,0-8.19,1.7,60.91,60.91,0,0,0-14,6.92c-5.75,3.7-10.89,8.21-16.33,12.3a80.32,80.32,0,0,1-14.17,8.3,22.58,22.58,0,0,1-5.81,2,64.17,64.17,0,0,1-9.07,1.33,85.39,85.39,0,0,1-13.19-.6c-2.37-.32-4.69-1-7.05-1.42-4.74-.8-9.49-1.57-14.24-2.27a123.34,123.34,0,0,0-14.08-1.75c-3.06-.11-6.11-.71-9.18-.8a89.13,89.13,0,0,0-21.79,1.74,67.94,67.94,0,0,0-15,5,87.19,87.19,0,0,0-23.57,16.93,60.26,60.26,0,0,1-12.24,9.75A29.94,29.94,0,0,1,67.7,115c-5.57.36-10.89-1.09-16-2.87a125.33,125.33,0,0,1-13.62-6C31.26,102.92,24.82,99,17.89,96,12.05,93.47,6.36,90.52,0,89.41m0,10c1.45-.56,2.53.48,3.75.88"/><path class="cls-2" d="M3.75,100.28c-1.22-.4-2.3-1.44-3.75-.88v-10C6.36,90.52,12.05,93.47,17.89,96c6.93,3,13.37,6.94,20.15,10.21a125.33,125.33,0,0,0,13.62,6c5.15,1.78,10.47,3.23,16,2.87a29.94,29.94,0,0,0,13.23-3.79,60.26,60.26,0,0,0,12.24-9.75,87.19,87.19,0,0,1,23.57-16.93,67.94,67.94,0,0,1,15-5,89.13,89.13,0,0,1,21.79-1.74c3.07.09,6.12.69,9.18.8a123.34,123.34,0,0,1,14.08,1.75c4.75.7,9.5,1.47,14.24,2.27,2.36.4,4.68,1.1,7.05,1.42a85.39,85.39,0,0,0,13.19.6,64.17,64.17,0,0,0,9.07-1.33,22.58,22.58,0,0,0,5.81-2,80.32,80.32,0,0,0,14.17-8.3c5.44-4.09,10.58-8.6,16.33-12.3a60.91,60.91,0,0,1,14-6.92,35.09,35.09,0,0,1,8.19-1.7c.23.2.41.13.55-.12,1.09-.61,2.26-.27,3.39-.24,3,.06,6.07-.31,9.08.22.49.57,1.05,1.07,1,1.94a17,17,0,0,0,.73,5.4,4,4,0,0,1-.23,2.16c-7.25-1-14.39-.76-21.36,1.82-5.84,2.16-10.84,5.67-15.76,9.36-5.38,4-10.56,8.33-16.24,12a61,61,0,0,1-14.51,6.93,59.88,59.88,0,0,1-21.4,2.36,57,57,0,0,1-10.36-1.19c-2.35-.56-4.76-.7-7.08-1.28-2.51-.62-5.07-.83-7.59-1.34-3.41-.68-6.88-1.07-10.34-1.47-10.16-1.19-20.28-2-30.55-.66a60.08,60.08,0,0,0-30.95,13.63c-3.91,3.23-7.56,6.71-11.21,10.21A45.21,45.21,0,0,1,78.5,122.48,41.84,41.84,0,0,1,61,124c-6.35-.68-12.23-2.86-18.06-5.23-8-3.28-15.62-7.56-23.35-11.5"/><path class="cls-3" d="M293.33,61.5a4,4,0,0,0,.23-2.16,17,17,0,0,1-.73-5.4c.09-.87-.47-1.37-1-1.94a2.58,2.58,0,0,0,1-2.4A42.83,42.83,0,0,1,296,35.41,42.06,42.06,0,0,1,306.32,20c6.9-6.73,15.1-11.3,24.88-12.5,5.67-.7,11.34-1.39,17-2,5.18-.55,10.39-1,15.54-1.73,4-.54,8.12-.36,12.06-1.56,1.14-.35,2.5.1,3.71-.11C383.7,1.39,388,1.5,392.12.58a21.92,21.92,0,0,1,4.22-.13c-.47,1.07-1.57,1.65-1.95,2.85-1.72,5.41-1.54,11.07-2.17,16.61a32.13,32.13,0,0,0,0,6.65c.46,4.7.62,9.41.63,14.12a2,2,0,0,0,0,.25c.64,5,1.19,10,2,15,.33,2.05,0,4.27.79,6.12.92,2.27.89,4.66,1.52,7,.75,2.73,1.27,5.56,2.11,8.3.33,1.1.79,2.17,1.14,3.25A56.08,56.08,0,0,0,403.15,88a5.85,5.85,0,0,0,4.2,3.47c-.13.09-.28.26-.41.26-4.34-.14-8.58.87-12.88,1.21-4.6.36-9.19.89-13.78,1.52-5,.68-10.06,1-15.09,1.48S355,97,349.89,97.56a96.2,96.2,0,0,1-11.12.93,35.59,35.59,0,0,1-6.46-.22,52,52,0,0,1-11.2-3,46.67,46.67,0,0,1-18-13.34,45.85,45.85,0,0,1-6.94-11.68C295,67.37,294.42,64.36,293.33,61.5Zm52.61,26A81.62,81.62,0,0,0,357.86,86c3.65-.58,7.39-.28,11-1.24,2.05-.54,4.18-.06,6.18-.51a35.9,35.9,0,0,1,5.08-.78A7.94,7.94,0,0,0,384.23,82a7.18,7.18,0,0,0,3.26-4.46c.53-2.45.09-4.78,0-7.15-.06-2.19.19-4.46-.88-6.53-.22-.43,0-.77.12-1.17a2.37,2.37,0,0,0-2.66-3c-3.41.37-6.81.9-10.23,1.08-1.59.09-3,.79-4.56.75a15.86,15.86,0,0,0-3.44.18,41.1,41.1,0,0,1-5.42.64c-3.56.21-7.09.72-10.6,1.21s-7.16.73-10.72,1.18c-3.8.48-7.63.88-11.45,1.32-3.66.42-7.38,0-11,1-2.3.64-4.78.2-7.13.81-.89.24-1.21.53-.6,1.32A67,67,0,0,0,313.58,75a41.88,41.88,0,0,0,7.08,5.79,46.54,46.54,0,0,0,6.62,3.75c2.19,1,4.26,2.2,6.8,1.94a.67.67,0,0,1,.47.14c1.92,1.64,4.41-.09,6.41,1.07C342.76,86.6,344.69,87.82,345.94,87.49Z"/><path class="cls-4" d="M407.35,91.42a5.85,5.85,0,0,1-4.2-3.47,56.08,56.08,0,0,1-2.74-7.42c-.35-1.08-.81-2.15-1.14-3.25-.84-2.74-1.36-5.57-2.11-8.3-.63-2.3-.6-4.69-1.52-7-.74-1.85-.46-4.07-.79-6.12-.79-5-1.34-10-2-15a2,2,0,0,1,0-.25c0-4.71-.17-9.42-.63-14.12a32.13,32.13,0,0,1,0-6.65c.63-5.54.45-11.2,2.17-16.61.38-1.2,1.48-1.78,1.95-2.85a.58.58,0,0,1,.34-.11A1.94,1.94,0,0,0,398,.26c2.94,1.24,4.15,3.92,5.13,6.6a111.74,111.74,0,0,1,4.8,16.65c.86,4.36,1.7,8.74,2.35,13.13.61,4.09,1,8.23,1.48,12.34.65,5.63.66,11.27.81,16.89a92.17,92.17,0,0,1-1.16,18.84,33.91,33.91,0,0,1-1.57,4.72A2.51,2.51,0,0,1,408.28,91a.45.45,0,0,0-.5.28A.76.76,0,0,1,407.35,91.42Zm-9-66c0,3.34.85,6.55,1.44,9.8a6.65,6.65,0,0,0,.94,2.56c.22.35.48.7,1,.61a1.14,1.14,0,0,0,.85-.83,9.73,9.73,0,0,0,.23-1.22c.81-5.15-.65-10-1.87-14.9a1.6,1.6,0,0,0-.23-.45c-.58-.9-1-.86-1.62.07C398.23,22.37,398.42,23.88,398.39,25.37Zm3.88,32.81c-.43,3.43.77,6.68,1.15,10a3.65,3.65,0,0,0,1.15,2.16c.4.39.94.58,1.16-.1.73-2.2,1.54-4.47.72-6.76a12.27,12.27,0,0,1-.61-4.14,13.43,13.43,0,0,0-.94-4.83c-.27-.7-.55-1.84-1.5-1.76s-.88,1.21-1.15,2C401.85,55.91,402.45,57,402.27,58.18Z"/><path class="cls-3" d="M398,.26a1.94,1.94,0,0,1-1.28.08A.83.83,0,0,1,398,.26Z"/><path class="cls-3" d="M279.4,52c-.14.25-.32.32-.55.12Z"/><path class="cls-3" d="M407.78,91.26a.45.45,0,0,1,.5-.28A.38.38,0,0,1,407.78,91.26Z"/><path class="cls-5" d="M345.94,87.49c-1.25.33-3.18-.89-5,.21-2-1.16-4.49.57-6.41-1.07a.67.67,0,0,0-.47-.14c-2.54.26-4.61-.95-6.8-1.94a46.54,46.54,0,0,1-6.62-3.75A41.88,41.88,0,0,1,313.58,75,67,67,0,0,1,309,69.23c-.61-.79-.29-1.08.6-1.32,2.35-.61,4.83-.17,7.13-.81,3.63-1,7.35-.56,11-1,3.82-.44,7.65-.84,11.45-1.32,3.56-.45,7.15-.68,10.72-1.18s7-1,10.6-1.21a41.1,41.1,0,0,0,5.42-.64,15.86,15.86,0,0,1,3.44-.18c1.52,0,3-.66,4.56-.75,3.42-.18,6.82-.71,10.23-1.08a2.37,2.37,0,0,1,2.66,3c-.12.4-.34.74-.12,1.17,1.07,2.07.82,4.34.88,6.53.05,2.37.49,4.7,0,7.15A7.18,7.18,0,0,1,384.23,82a7.94,7.94,0,0,1-4.14,1.47,35.9,35.9,0,0,0-5.08.78c-2,.45-4.13,0-6.18.51-3.58,1-7.32.66-11,1.24A81.62,81.62,0,0,1,345.94,87.49Z"/><path class="cls-5" d="M398.39,25.37c0-1.49-.16-3,.72-4.36.6-.93,1-1,1.62-.07a1.6,1.6,0,0,1,.23.45c1.22,4.89,2.68,9.75,1.87,14.9a9.73,9.73,0,0,1-.23,1.22,1.14,1.14,0,0,1-.85.83c-.5.09-.76-.26-1-.61a6.65,6.65,0,0,1-.94-2.56C399.24,31.92,398.4,28.71,398.39,25.37Z"/><path class="cls-5" d="M402.27,58.18c.18-1.14-.42-2.27,0-3.44.27-.76.19-1.88,1.15-2s1.23,1.06,1.5,1.76a13.43,13.43,0,0,1,.94,4.83,12.27,12.27,0,0,0,.61,4.14c.82,2.29,0,4.56-.72,6.76-.22.68-.76.49-1.16.1a3.65,3.65,0,0,1-1.15-2.16C403,64.86,401.84,61.61,402.27,58.18Z"/></g></g></svg>