<svg xmlns="http://www.w3.org/2000/svg" viewBox="0 0 420.88 104.91"><defs><style>.cls-1{fill:#6853d6;}.cls-2{fill:#ccc5f1;}.cls-3{fill:#393f4c;}.cls-4{fill:#101319;}.cls-5{fill:#101218;}.cls-6{fill:#515560;}</style></defs><g id="Layer_2" data-name="Layer 2"><g id="Layer_1-2" data-name="Layer 1"><path class="cls-1" d="M420.71,50.86c-1.91,1.33-3.82,2.64-5.71,4a108.47,108.47,0,0,1-13.19,8.5,59,59,0,0,1-15.68,5.24c-8.59,1.68-16.89.19-25.19-1.34-4.14-.76-8.27-1.74-12.42-2.41q-8.2-1.32-16.5-2.32a148.84,148.84,0,0,0-14.91-.84,89.51,89.51,0,0,0-15.15.88A60.84,60.84,0,0,0,291.35,65,75.23,75.23,0,0,0,278,71a104.06,104.06,0,0,0-17,12.48,56.35,56.35,0,0,1-11.32,8.08,28.78,28.78,0,0,1-14.13,3.28,39.58,39.58,0,0,1-6.92-.63,56.14,56.14,0,0,1-11.12-3.42c-4.33-1.85-8.7-3.65-12.87-5.82-8.47-4.4-16.94-8.78-25.74-12.51A105.14,105.14,0,0,0,166,68.19c-4.47-1.23-9-2.21-13.53-3.06l-.78,0c-1.34-.81-2.93-.2-4.31-.78s-1.94-1.65-1.87-3.29a46,46,0,0,0-.15-8.71,44.07,44.07,0,0,0-7.12-18.62,47.72,47.72,0,0,0-17.84-15.87,50.77,50.77,0,0,0-11.68-4c-5.06-1.21-10-2.92-15.06-4.11C89,8.6,84.58,7.15,80,6.08,76.39,5.22,72.86,4,69.25,3.15,66,2.37,62.72,1.36,59.44.49c-3.67-1-7.19-.66-10.08,2.41-1.76,1.88-2.14,4.23-2.88,6.5-.86,2.65-1,5.53-2.54,8A5.75,5.75,0,0,0,41.48,17a.92.92,0,0,0-1-.4A4.59,4.59,0,0,0,37.91,16a1.54,1.54,0,0,0-1.58-.71l-2.25-.44a1.29,1.29,0,0,0-1.73-.52L23.07,12a12.87,12.87,0,0,0-8.22-1.71,1.77,1.77,0,0,0-1.46,1.19l-1,.58h0l-1.08,1.42a4.8,4.8,0,0,0,0,6.15c.36.45.72.9,1.09,1.34-.06.39.16.49.49.46l.46.26c.51.69,1,1.47,2,.87l1,.08c2.62,1.67,5.65,1.93,8.58,2.55l1.49.23a2.65,2.65,0,0,0,2.5.8l1.57.3c.42.91,1.13.94,1.94.66l1.5.15c.35.55.7,1.11,1.5.76l2,.26c.45.73,1,1.2,1.89.69l1,.12a2.89,2.89,0,0,1,0,2.64,15,15,0,0,0-1.22,4.72,2.61,2.61,0,0,0-.08,1.61,2.51,2.51,0,0,0-.9,2.4,2.88,2.88,0,0,0-.06,1.62c-.7.44-1.15,1-.82,1.87l-.17,1.14c-.75.41-1.18,1-.82,1.86a4.29,4.29,0,0,0-.2,2.13c-.83.41-1.2,1-.72,1.9,0,.46,0,.92,0,1.38-.24.23-.59.41-.69.69-.52,1.41-1.42,1.53-2.74,1.14-2-.6-4.15-1.05-6.24-1.51-2.48-.55-4.81-1.72-7.39-1.84a4.72,4.72,0,0,0-1.94-.2,1.46,1.46,0,0,0-2-.79l-1.32-.08c-1.82-1.42-4.09-1.58-6.21-2.11a1.82,1.82,0,0,0-2.35.87l-.52.26a1.13,1.13,0,0,0-1.48.74,1.87,1.87,0,0,0-1.21,1.33.59.59,0,0,0-.41.59L.69,53.27a1.37,1.37,0,0,0,0,2.39A5.2,5.2,0,0,0,4.59,60c1,.28,2.05.64,3.09.92,3.19.87,6.37,1.79,9.59,2.57,4.41,1.06,8.7,2.65,13.22,3.31a6.8,6.8,0,0,1-.16,3.45,35.07,35.07,0,0,0-2.25,7.84C27.14,82.8,29.43,87.72,34.7,89q5.4,1.29,10.7,3c2.54.78,5.16,1.17,7.71,1.87,3.32.92,6.61,1.92,9.94,2.81,1.81.48,3.69.78,5.49,1.45a49,49,0,0,0,8.37,2.24c3.74.69,7.29,2.08,11,3a43.62,43.62,0,0,0,6.77,1.42,48.4,48.4,0,0,0,21-2.65c10.86-4,18.85-11.22,24.6-21.08a9.53,9.53,0,0,0,1.64-4.11c.5-.13.93-.3.53-.94l0-.83c.56-.42,1.31-.71.95-1.65a.21.21,0,0,0,0-.31l2.39-.05A2.48,2.48,0,0,0,148,74.18a17.76,17.76,0,0,1,3.9.65c1.68.35,3.4.55,5.1.82a4.16,4.16,0,0,0,2,.17,2.29,2.29,0,0,0,2.51.8l1,.21c.5.63,1,1.12,1.92.66l1.38.19a22.74,22.74,0,0,0,8.09,2.73l1,.18a1.81,1.81,0,0,0,1,1c3.34,1,6.35,2.8,9.51,4.24,2.69,1.23,5.14,3,8.06,3.74l.87.47a.86.86,0,0,0,1.09.67l.61.2c.18.4.38.77.93.6l1.07.4a.75.75,0,0,0,.81.54,1,1,0,0,0,.45.16c.22.24.4.57.68.71a76.9,76.9,0,0,0,10.49,4.78l1,.16a1.75,1.75,0,0,0,1.35.71l.91.25c.53.32.77,1.2,1.64.82l.9.09c.46.41.68,1.3,1.59.8l1.4.2c.52.73,1,1.4,2.09.83l1,.09a2.79,2.79,0,0,0,2.38,1.13,25,25,0,0,1,3.67.56,48.59,48.59,0,0,0,8.4.76,37.8,37.8,0,0,0,9.79-1.48c1.37-.42,3-.43,3.92-1.9a2.61,2.61,0,0,0,1.82-.57c1.74-.43,3.46-.91,4.58-2.48L257,98a6.08,6.08,0,0,0,3.61-2.36l.71-.45a1.76,1.76,0,0,0,1.78-1.32l.36-.37a.77.77,0,0,0,.71-.61c1.51-.74,2.37-2.22,3.66-3.21,1.5-.31,2.33-1.44,3.18-2.55,1.34-1,2.72-1.91,4-2.92,8.28-6.38,17.39-10.75,27.84-12.3a116.6,116.6,0,0,1,12.89-1c3.23-.12,6.47.28,9.7.34,3.67.07,7.27.76,10.9,1.15,5,.54,10,1.68,14.94,2.46,3.85.61,7.65,1.49,11.48,2.23a90,90,0,0,0,13.57,1.58,59.72,59.72,0,0,0,15.27-1.69,62.46,62.46,0,0,0,18.27-7.48c3.71-2.21,7.19-4.75,10.81-7.09"/><path class="cls-2" d="M420.69,62.37a94,94,0,0,0,0-11.51"/><path class="cls-3" d="M39.13,38.07a2.68,2.68,0,0,1,.07-1.61c1.69-2.19,2-4.8,2.27-7.42.33-1.47-.15-3.16,1.21-4.37.19-.18.19-.63.19-1a8.58,8.58,0,0,1,.7-2.85c.37-1.08,1.28-2.24.37-3.5,1.54-2.44,1.68-5.32,2.54-8,.74-2.27,1.12-4.62,2.88-6.5C52.25-.17,55.77-.48,59.44.49c3.28.87,6.51,1.88,9.81,2.66C72.86,4,76.39,5.22,80,6.08c4.57,1.07,9,2.52,13.6,3.6,5.06,1.19,10,2.9,15.06,4.11a50.77,50.77,0,0,1,11.68,4,47.72,47.72,0,0,1,17.84,15.87,44.07,44.07,0,0,1,7.12,18.62,46,46,0,0,1,.15,8.71c-.07,1.64.36,2.7,1.87,3.29-1.42.23-2.62.61-2.12,2.5.07.26-.19.6-.27.91-.51,1.81-1,3.62-1.5,5.43a.21.21,0,0,1,0,.31,1.59,1.59,0,0,0-.95,1.65l0,.83a1.28,1.28,0,0,0-.53.94A9.53,9.53,0,0,1,140.26,81c-5.75,9.86-13.74,17.07-24.6,21.08a48.4,48.4,0,0,1-21,2.65,43.62,43.62,0,0,1-6.77-1.42c-3.69-.9-7.24-2.29-11-3a49,49,0,0,1-8.37-2.24c-1.8-.67-3.68-1-5.49-1.45-3.33-.89-6.62-1.89-9.94-2.81-2.55-.7-5.17-1.09-7.71-1.87q-5.3-1.65-10.7-3c-5.27-1.28-7.56-6.2-6.62-10.91a35.07,35.07,0,0,1,2.25-7.84,6.8,6.8,0,0,0,.16-3.45c.28-.3.71-.56.82-.91a67.38,67.38,0,0,0,2-7c.22-1.16,1.26-2,1-3.25a4,4,0,0,0,1-3.22c0-.46,0-.92,0-1.38.75-.44,1.27-1,.72-1.9A4.41,4.41,0,0,1,36.35,47c.87-.36,1.33-.89.83-1.86,0-.38.11-.76.16-1.14.88-.35,1.35-.9.83-1.87a2.88,2.88,0,0,1,.06-1.62C39.16,39.91,39.7,39.2,39.13,38.07ZM42,73.41c1.24,1.52.63,3.65,2,4.9,2.36,2.22,4.85,4.33,8.44,4.16a2.82,2.82,0,0,1,1.44.28c3.27,1.85,7,2.25,10.54,3,3.19.71,6.34,1.66,9.5,2.44,2.55.64,5.15,1.55,7.72,2.38a34.74,34.74,0,0,0,5,1.19c1.44.25,2.88.94,4.3.82,2.74-.24,5.49,0,8.22-.17a35.92,35.92,0,0,0,7.37-.75,76.2,76.2,0,0,0,8.63-3.52,6.6,6.6,0,0,0,1.55-.77c2.84-2.24,6.33-3.61,8.67-6.53.19-.23.58-.3.86-.47.84-.5.71-.9,0-1.46-1.23-1-2.79-1-4.16-1.54A21.76,21.76,0,0,0,116.8,76a26.77,26.77,0,0,1-5.43-1.51,48.39,48.39,0,0,0-8.49-2.37,129.11,129.11,0,0,1-14-3.72c-1.5-.44-2.91-1.15-4.54-1a2.38,2.38,0,0,1-1.43-.36c-2.63-1.46-5.66-1.64-8.43-2.62-1.43-.51-3.1-.12-4.4-.68-3-1.3-6.33-1.71-9.4-2.85-.78-.29-1.41-1-2.29-.92-3.54.39-6.34-2.14-9.77-2.38-1.67-.11-2.71,0-3.07,1.6-.75,3.33-1.5,6.66-2.47,9.93C42.65,70.56,43.21,72.18,42,73.41Z"/><path class="cls-4" d="M143.44,73.15c.5-1.81,1-3.62,1.5-5.43.08-.31.34-.65.27-.91-.5-1.89.7-2.27,2.12-2.5,1.38.58,3,0,4.31.78.22.62.5.29.78,0C157,66,161.48,67,166,68.19a105.14,105.14,0,0,1,12.94,4.23c8.8,3.73,17.27,8.11,25.74,12.51,4.17,2.17,8.54,4,12.87,5.82a56.14,56.14,0,0,0,11.12,3.42,39.58,39.58,0,0,0,6.92.63,28.78,28.78,0,0,0,14.13-3.28A56.35,56.35,0,0,0,261,83.44,104.06,104.06,0,0,1,278,71a75.23,75.23,0,0,1,13.33-6A60.84,60.84,0,0,1,302,62.55a89.51,89.51,0,0,1,15.15-.88,148.84,148.84,0,0,1,14.91.84q8.28,1,16.5,2.32c4.15.67,8.28,1.65,12.42,2.41,8.3,1.53,16.6,3,25.19,1.34a59,59,0,0,0,15.68-5.24A108.47,108.47,0,0,0,415,54.84c1.89-1.34,3.8-2.65,5.71-4a94,94,0,0,1,0,11.51c-3.62,2.34-7.1,4.88-10.81,7.09a62.46,62.46,0,0,1-18.27,7.48,59.72,59.72,0,0,1-15.27,1.69,90,90,0,0,1-13.57-1.58c-3.83-.74-7.63-1.62-11.48-2.23-5-.78-9.93-1.92-14.94-2.46-3.63-.39-7.23-1.08-10.9-1.15-3.23-.06-6.47-.46-9.7-.34a116.6,116.6,0,0,0-12.89,1c-10.45,1.55-19.56,5.92-27.84,12.3-1.31,1-2.69,2-4,2.91-1.65.13-2.28,1.51-3.18,2.56-1.29,1-2.15,2.47-3.66,3.21a.7.7,0,0,0-.71.61l-.36.37a1.91,1.91,0,0,0-1.78,1.32l-.71.45A6,6,0,0,0,257,98l-.1.07a10.74,10.74,0,0,0-4.58,2.48,2.61,2.61,0,0,1-1.82.57c-2.3.63-4.58,1.28-6.94,1.74a41.86,41.86,0,0,1-14.85.11c-2.12-.34-4.24-.61-6.37-.92l-1-.09a2.24,2.24,0,0,0-2.09-.83l-1.4-.2a1.3,1.3,0,0,0-1.59-.8l-.9-.09c-.35-.67-.79-1.16-1.64-.82L212.8,99c-.25-.61-.57-1.12-1.35-.71l-1-.16a1.77,1.77,0,0,0-1-1c-3.19-1.38-6.35-2.81-9.42-4.44-.2-.1-.49,0-.73,0a1,1,0,0,1-.45-.16.82.82,0,0,0-.81-.54L197,91.52a.91.91,0,0,0-.93-.61l-.61-.2a1,1,0,0,0-1.09-.67l-.86-.47a1.59,1.59,0,0,0-.82-.89c-3.2-1.58-6.35-3.24-9.59-4.7-2.7-1.22-5.22-2.91-8.22-3.39l-1-.18c-.91-1.43-2.61-1.28-3.92-1.73s-2.56-1.68-4.17-1l-1.38-.19c-.43-.82-1-1.24-1.92-.66l-1-.21a2.25,2.25,0,0,0-2.51-.8,4.16,4.16,0,0,1-2-.17,1.71,1.71,0,0,0-1.37-1c-3.26-.45-6.44-1.45-9.76-1.58Z"/><path class="cls-4" d="M34.39,55.59c.21,1.25-.83,2.09-1,3.25a67.38,67.38,0,0,1-2,7c-.11.35-.54.61-.82.91-4.52-.66-8.81-2.25-13.22-3.31-3.22-.78-6.4-1.7-9.59-2.57-1-.28-2.06-.64-3.09-.92A5.2,5.2,0,0,1,.7,55.66a3.5,3.5,0,0,0,0-2.39L1,51.46a.64.64,0,0,0,.41-.59,1.87,1.87,0,0,1,1.21-1.33,1.52,1.52,0,0,0,1.48-.74l.52-.26a9.33,9.33,0,0,1,3.6.28c1.64.35,3.2,1.21,5,1l1.32.08c.5.65,1,1.24,2,.79a4.72,4.72,0,0,1,1.94.2,1.66,1.66,0,0,0,1.06,1C24.44,52.93,29.32,54.62,34.39,55.59Z"/><path class="cls-5" d="M43.94,17.37c.91,1.26,0,2.42-.37,3.5a8.58,8.58,0,0,0-.7,2.85c0,.32,0,.77-.19,1-1.36,1.21-.88,2.9-1.21,4.37l-1.06.06-1-.12c-.44-.74-1-1.21-1.89-.69l-2-.26c-.37-.52-.67-1.15-1.5-.76l-1.5-.15c-.47-.74-1.21-.69-1.94-.66L29,26.16c-.66-.83-1.4-1.37-2.5-.8L25,25.13c-.18-.39-.42-.8-.84-.86-2.62-.41-5.09-1.47-7.74-1.69l-1-.08a2.27,2.27,0,0,0-2-.87l-.46-.26a.62.62,0,0,0-.49-.46c-.37-.44-.73-.89-1.09-1.34a26.36,26.36,0,0,1,0-6.15L12.45,12h0l1-.58a10.25,10.25,0,0,1,6.52.12,7.53,7.53,0,0,0,3.16.4l9.28,2.4a1.39,1.39,0,0,0,1.73.52l2.25.44a1.39,1.39,0,0,0,1.58.71,4.67,4.67,0,0,1,2.54.53.89.89,0,0,0,1,.41A5.75,5.75,0,0,1,43.94,17.37Z"/><path class="cls-3" d="M222.32,102.05c2.13.31,4.25.58,6.37.92a41.86,41.86,0,0,0,14.85-.11c2.36-.46,4.64-1.11,6.94-1.74-.89,1.47-2.55,1.48-3.92,1.9a37.8,37.8,0,0,1-9.79,1.48,48.59,48.59,0,0,1-8.4-.76,25,25,0,0,0-3.67-.56A2.79,2.79,0,0,1,222.32,102.05Z"/><path class="cls-3" d="M34.39,55.59c-5.07-1-9.95-2.66-15-3.78a1.66,1.66,0,0,1-1.06-1c2.58.12,4.91,1.29,7.39,1.84,2.09.46,4.19.91,6.24,1.51,1.32.39,2.22.27,2.74-1.14.1-.28.45-.46.69-.69A4,4,0,0,1,34.39,55.59Z"/><path class="cls-3" d="M174.83,80.59c3,.48,5.52,2.17,8.22,3.39,3.24,1.46,6.39,3.12,9.59,4.7a1.59,1.59,0,0,1,.82.89c-2.93-.73-5.38-2.51-8.07-3.74-3.16-1.44-6.17-3.22-9.51-4.24A1.81,1.81,0,0,1,174.83,80.59Z"/><path class="cls-3" d="M145.83,73.1c3.32.13,6.5,1.13,9.76,1.58a1.71,1.71,0,0,1,1.37,1c-1.7-.27-3.42-.47-5.1-.82a17.76,17.76,0,0,0-3.9-.65A2.48,2.48,0,0,1,145.83,73.1Z"/><path class="cls-3" d="M199.28,92.61c.24,0,.53-.07.73,0,3.07,1.63,6.23,3.06,9.42,4.44a1.77,1.77,0,0,1,1,1A76.9,76.9,0,0,1,200,93.32C199.68,93.18,199.5,92.85,199.28,92.61Z"/><path class="cls-3" d="M23.07,12a7.53,7.53,0,0,1-3.16-.4,10.25,10.25,0,0,0-6.52-.12,1.77,1.77,0,0,1,1.46-1.19A12.87,12.87,0,0,1,23.07,12Z"/><path class="cls-3" d="M13.14,49.78c-1.76.25-3.32-.61-5-1a9.33,9.33,0,0,0-3.6-.28,1.82,1.82,0,0,1,2.35-.87C9.05,48.2,11.32,48.36,13.14,49.78Z"/><path class="cls-3" d="M165.76,77.68c1.61-.68,2.86.56,4.17,1s3,.3,3.92,1.73A22.74,22.74,0,0,1,165.76,77.68Z"/><path class="cls-3" d="M16.46,22.58c2.65.22,5.12,1.28,7.74,1.69.42.06.66.47.84.86C22.11,24.51,19.08,24.25,16.46,22.58Z"/><path class="cls-3" d="M40.41,29.1,41.47,29c-.27,2.62-.58,5.23-2.27,7.42a15.24,15.24,0,0,1,1.23-4.72A2.89,2.89,0,0,0,40.41,29.1Z"/><path class="cls-3" d="M11.37,13.42a26.36,26.36,0,0,0,0,6.15A4.8,4.8,0,0,1,11.37,13.42Z"/><path class="cls-3" d="M252.3,100.55a10.74,10.74,0,0,1,4.58-2.48C255.76,99.64,254,100.12,252.3,100.55Z"/><path class="cls-3" d="M267.81,89.68c.9-1.05,1.53-2.43,3.18-2.56C270.14,88.24,269.31,89.37,267.81,89.68Z"/><path class="cls-3" d="M257,98a6,6,0,0,1,3.61-2.36A6.08,6.08,0,0,1,257,98Z"/><path class="cls-3" d="M39.13,38.07c.57,1.13,0,1.84-.9,2.4A2.51,2.51,0,0,1,39.13,38.07Z"/><path class="cls-3" d="M26.53,25.36c1.1-.57,1.84,0,2.5.8A2.65,2.65,0,0,1,26.53,25.36Z"/><path class="cls-3" d="M37.53,28.29c.91-.52,1.45-.05,1.89.69C38.52,29.49,38,29,37.53,28.29Z"/><path class="cls-3" d="M37.18,45.1c.5,1,0,1.5-.83,1.86C36,46.06,36.43,45.51,37.18,45.1Z"/><path class="cls-3" d="M.69,53.27a3.5,3.5,0,0,1,0,2.39A1.37,1.37,0,0,1,.69,53.27Z"/><path class="cls-3" d="M38.17,42.09c.52,1,0,1.52-.83,1.87C37,43.07,37.47,42.53,38.17,42.09Z"/><path class="cls-3" d="M36.16,49.09c.55.93,0,1.46-.72,1.9C35,50.08,35.33,49.5,36.16,49.09Z"/><path class="cls-3" d="M162.46,76.83c.92-.58,1.49-.16,1.92.66C163.5,78,163,77.46,162.46,76.83Z"/><path class="cls-3" d="M159,75.82a2.25,2.25,0,0,1,2.51.8A2.29,2.29,0,0,1,159,75.82Z"/><path class="cls-3" d="M16.42,50.65c-.94.45-1.46-.14-2-.79A1.46,1.46,0,0,1,16.42,50.65Z"/><path class="cls-3" d="M13.4,21.63a2.27,2.27,0,0,1,2,.87C14.37,23.1,13.91,22.32,13.4,21.63Z"/><path class="cls-3" d="M219.24,101.13a2.24,2.24,0,0,1,2.09.83C220.29,102.53,219.76,101.86,219.24,101.13Z"/><path class="cls-3" d="M261.3,95.19a1.91,1.91,0,0,1,1.78-1.32A1.76,1.76,0,0,1,261.3,95.19Z"/><path class="cls-3" d="M213.71,99.22c.85-.34,1.29.15,1.64.82C214.48,100.42,214.24,99.54,213.71,99.22Z"/><path class="cls-3" d="M34,27.27c.83-.39,1.13.24,1.5.76C34.74,28.38,34.39,27.82,34,27.27Z"/><path class="cls-3" d="M142.46,75.11a1.59,1.59,0,0,1,.95-1.65C143.77,74.4,143,74.69,142.46,75.11Z"/><path class="cls-3" d="M216.25,100.13a1.3,1.3,0,0,1,1.59.8C216.93,101.43,216.71,100.54,216.25,100.13Z"/><path class="cls-3" d="M30.6,26.46c.73,0,1.47-.08,1.94.66C31.73,27.4,31,27.37,30.6,26.46Z"/><path class="cls-3" d="M34.08,14.87a1.39,1.39,0,0,1-1.73-.52A1.29,1.29,0,0,1,34.08,14.87Z"/><path class="cls-3" d="M4.06,48.8a1.52,1.52,0,0,1-1.48.74A1.13,1.13,0,0,1,4.06,48.8Z"/><path class="cls-3" d="M211.45,98.26c.78-.41,1.1.1,1.35.71A1.75,1.75,0,0,1,211.45,98.26Z"/><path class="cls-3" d="M37.91,16a1.39,1.39,0,0,1-1.58-.71A1.54,1.54,0,0,1,37.91,16Z"/><path class="cls-3" d="M141.9,76.88a1.28,1.28,0,0,1,.53-.94C142.83,76.58,142.4,76.75,141.9,76.88Z"/><path class="cls-3" d="M194.32,90a1,1,0,0,1,1.09.67A.86.86,0,0,1,194.32,90Z"/><path class="cls-3" d="M196,90.91a.91.91,0,0,1,.93.61C196.4,91.68,196.2,91.31,196,90.91Z"/><path class="cls-3" d="M12.45,20.91a.62.62,0,0,1,.49.46C12.61,21.4,12.39,21.3,12.45,20.91Z"/><path class="cls-3" d="M41.48,17a.89.89,0,0,1-1-.41A.94.94,0,0,1,41.48,17Z"/><path class="cls-3" d="M152.42,65.13c-.28.25-.56.58-.78,0Z"/><path class="cls-3" d="M198,91.91a.82.82,0,0,1,.81.54A.75.75,0,0,1,198,91.91Z"/><path class="cls-3" d="M263.44,93.5a.7.7,0,0,1,.71-.61A.77.77,0,0,1,263.44,93.5Z"/><path class="cls-3" d="M1.37,50.87a.64.64,0,0,1-.41.59A.59.59,0,0,1,1.37,50.87Z"/><path class="cls-3" d="M12.43,12h0Z"/><path class="cls-6" d="M42,73.41c1.23-1.23.67-2.85,1.08-4.25,1-3.27,1.72-6.6,2.47-9.93.36-1.6,1.4-1.71,3.07-1.6,3.43.24,6.23,2.77,9.77,2.38.88-.1,1.51.63,2.29.92,3.07,1.14,6.35,1.55,9.4,2.85,1.3.56,3,.17,4.4.68,2.77,1,5.8,1.16,8.43,2.62a2.38,2.38,0,0,0,1.43.36c1.63-.19,3,.52,4.54,1a129.11,129.11,0,0,0,14,3.72,48.39,48.39,0,0,1,8.49,2.37A26.77,26.77,0,0,0,116.8,76a21.76,21.76,0,0,1,5.2,1.41c1.37.56,2.93.58,4.16,1.54.73.56.86,1,0,1.46-.28.17-.67.24-.86.47-2.34,2.92-5.83,4.29-8.67,6.53a6.6,6.6,0,0,1-1.55.77,76.2,76.2,0,0,1-8.63,3.52,35.92,35.92,0,0,1-7.37.75c-2.73.17-5.48-.07-8.22.17-1.42.12-2.86-.57-4.3-.82a34.74,34.74,0,0,1-5-1.19c-2.57-.83-5.17-1.74-7.72-2.38-3.16-.78-6.31-1.73-9.5-2.44-3.54-.79-7.27-1.19-10.54-3a2.82,2.82,0,0,0-1.44-.28c-3.59.17-6.08-1.94-8.44-4.16C42.61,77.06,43.22,74.93,42,73.41Z"/></g></g></svg>